<?xml version="1.0" encoding="utf-8"?>
<!-- Generator: Adobe Illustrator 18.1.1, SVG Export Plug-In . SVG Version: 6.00 Build 0)  -->
<svg version="1.1" id="Layer_1" xmlns="http://www.w3.org/2000/svg" xmlns:xlink="http://www.w3.org/1999/xlink" x="0px" y="0px"
	 viewBox="0 0 415 160" enable-background="new 0 0 415 160" xml:space="preserve">
<g>
	<path fill="#622E36" d="M204.5,134.3c-1.5,1.2-3.1,0.8-4.5,0.7c-3.4-0.1-6.7-0.2-10.1-0.3c-1.1,0-2.2,0.2-3.4,0.1
		c-0.8,0-1.6-0.2-2.8-0.4c0.6-0.7,0.9-1.1,1.2-1.3c0.3-0.2,0.7-0.3,1.1-0.4c4.5-1.6,4.8-2,4.9-6.7c0.1-8.9,0.3-17.9,0.3-26.8
		c0-3-0.2-6.1-0.4-9.1c-0.2-2.5-0.7-3.1-3.1-3.9c-2.3-0.7-2.3-0.7-3.2-1.7c0.2-0.9,1-0.9,1.7-0.9c6.9-0.1,13.7-0.2,20.6-0.2
		c1.4,0,2.9,0.2,4.3,0.5c5.4,1.2,9,4.9,9.9,10.1c0.9,5.2-1.4,10.8-6.1,13.3c-4,2.1-3.3,2.5-1.3,5.5c3.3,5,6.8,9.9,10.3,14.7
		c1.9,2.7,4.5,4.5,7.8,5.3c0.6,0.1,1.2,0.6,2.2,1.2c-1.2,0.5-1.7,1-2.4,1.1c-5.8,1.1-10.7-0.5-14.2-5.2c-3.3-4.3-6.1-9-9.1-13.5
		c-0.6-0.9-1.3-1.7-1.7-2.6c-1.5-2.8-4.1-3.4-6.9-3.6c-1.6-0.1-2.1,0.3-2,1.9c0.1,5.4,0.3,10.9,0.4,16.3c0.1,2.1,1.4,3.3,3.3,3.9
		C202.4,132.8,203.7,132.8,204.5,134.3z M200.7,108.8c2.3-0.5,4.7-0.9,6.9-1.7c4.6-1.6,7.6-7.5,6.5-12.3c-1.6-6.4-6.5-9.9-13.1-9.1
		c-2.4,0.3-2.9,0.7-3,3.1c-0.2,5.7-0.3,11.3-0.3,17C197.6,108.2,198.1,108.6,200.7,108.8z"/>
	<path fill="#622E36" d="M104.4,108.9c-0.1,12.9-8.4,27.2-27.3,27.2C62.5,136,50.2,125,50.2,108.9c0-14.8,11.6-26.8,26.9-26.7
		C93.4,82.2,104.7,94.5,104.4,108.9z M57.8,105.6c-0.1,8.5,2,14.6,6.3,20c2.5,3.1,5.6,5.4,9.4,6.9c6.4,2.4,13.8,0.8,17.7-4.2
		c1.6-2,2.8-4.3,3.7-6.7c2.1-5.4,2.4-11.1,1.3-16.8c-1.1-5.6-3.5-10.7-7.7-14.6c-10.1-9.5-25.3-6.4-29.3,7.2
		C58.3,100.6,57.8,103.9,57.8,105.6z"/>
	<path fill="#622E36" d="M278.7,84.1c0.5-0.2,0.8-0.5,1.2-0.5c5.5,0,11,0,16.4,0c0.5,0.8,0.1,1.3-0.5,1.6c-0.6,0.3-1.2,0.4-1.8,0.6
		c-3,0.9-4.1,2.1-4.2,5.3c-0.3,4.8-0.4,9.6-0.6,14.4c-0.1,4.5-0.3,9-0.3,13.4c0,4.7,0.3,9.4,0.4,14.1c0,0.9,0.4,2.1-0.7,2.6
		c-1.1,0.5-1.9-0.5-2.7-1.2c-0.4-0.4-0.8-0.8-1.1-1.2c-8.3-9.8-16.6-19.7-24.9-29.5c-2.4-2.8-4.8-5.6-7.2-8.4
		c-0.5-0.6-1-1.1-1.9-1.9c-0.2,1-0.4,1.5-0.4,2c-0.2,10.2-0.4,20.3-0.4,30.5c0,4.2,1,5.4,5.1,6.8c0.7,0.2,1.3,0.7,2,1
		c-0.6,1.3-1.5,1.3-2.3,1.3c-4.9-0.1-9.7-0.2-14.6-0.4c-0.4,0-0.7-0.2-1.3-0.5c0.5-0.5,0.8-1,1.2-1.3c0.8-0.4,1.8-0.7,2.7-1.1
		c1.6-0.6,2.6-1.8,3-3.5c0.2-0.9,0.4-1.9,0.4-2.8c0.5-10.4,1-20.8,1.5-31.1c0-0.7,0-1.4,0-2.2c-0.1-3.2-1.4-5-4.5-6.1
		c-0.9-0.3-1.9-0.5-2.7-0.8c-0.6-0.2-1.2-0.6-1.7-0.9c0-0.2,0.1-0.4,0.1-0.6c0.6-0.1,1.3-0.4,1.9-0.4c3.2,0,6.4,0,9.6,0.2
		c0.8,0.1,1.8,0.6,2.4,1.3c1.1,1.1,2.1,2.4,3.1,3.7c8.9,11.4,19,21.7,28.6,32.4c0.3,0.4,0.8,0.7,1.6,1.3c0.2-1.4,0.5-2.5,0.5-3.5
		c-0.1-9-0.3-18.1-0.3-27.1c0-2.8-1.5-4.4-4-5.4C280.9,85.8,279.4,85.8,278.7,84.1z"/>
	<path fill="#622E36" d="M117.4,83.9c0.6-0.2,1-0.5,1.4-0.5c6,0,12,0,18,0.1c0.3,0,0.7,0.3,1.4,0.7c-0.9,0.6-1.5,1-2.1,1.3
		c-0.7,0.3-1.5,0.4-2.3,0.6c-1.7,0.5-2.7,1.7-3,3.4c-0.2,1.7-0.4,3.3-0.4,5c-0.1,6.1-0.1,12.2,0,18.2c0,2.1,0.2,4.2,0.5,6.2
		c1,7.1,5.5,11.7,12.7,12.7c2.3,0.3,4.7,0.3,6.9-0.2c6.2-1.3,10-5.2,11.1-11.4c0.7-4.2,1.2-8.4,1.4-12.6c0.2-4.9,0.1-9.8,0-14.6
		c0-0.8-0.2-1.6-0.2-2.4c0-2.8-1.5-4.2-4.1-4.9c-1-0.3-2.3-0.3-2.7-1.9c1.9-0.8,3.9-0.2,5.8-0.3c1.9,0,3.8,0,5.8,0
		c1.9,0.1,3.9-0.6,6.3,0.6c-1.1,0.7-1.7,1.3-2.5,1.5c-3.2,0.9-4.6,3.1-4.8,6.4c-0.2,6.3-0.6,12.6-0.9,18.9
		c-0.2,3.9-0.7,7.8-1.8,11.6c-2.6,8.4-8,12.7-16.8,13.3c-3.6,0.3-7.2,0-10.7-1.1c-6.1-1.9-9.9-6.1-11.3-12.2
		c-0.8-3.7-1.2-7.6-1.4-11.4c-0.3-5.8-0.1-11.7-0.2-17.5c0-1,0-1.9-0.1-2.9c-0.1-3.2-0.8-4-3.8-5C119,85.4,117.9,85.4,117.4,83.9z"
		/>
	<path fill="#622E36" d="M308.2,84.2c1.1-1.2,2.4-0.9,3.5-0.9c8.7,0,17.4,0.1,26.2,0.1c1.3,0,2.5,0,3.9,0c0.1,0.6,0.3,1.1,0.3,1.6
		c0.1,2.3,0.1,4.6,0.1,7c0,0.5-0.4,1.1-0.8,1.3c-0.8,0.3-1.1-0.5-1.3-1.1c-0.1-0.3-0.2-0.6-0.3-0.9c-1.2-3.7-2.5-4.9-6.3-5.1
		c-2.9-0.2-5.8-0.3-8.6-0.3c-2.2,0-2.8,0.6-2.9,2.8c-0.1,1.9-0.1,3.8-0.1,5.8c-0.1,2.6-0.2,5.3-0.2,7.9c0,1.5,0.1,3,0.2,4.6
		c0.6,0.1,1.1,0.3,1.5,0.3c2.6,0,5.3,0,7.9-0.1c2.6-0.1,4.7-0.9,5.5-3.7c0.2-0.7,0.8-1.3,1.4-1.8c0.9,2.4,0.3,4.7,0.4,7.1
		c0,2.3,0.5,4.7,0,7c-1.5,0-1.7-1-1.9-1.8c-0.6-2.8-2.4-3.8-5-3.8c-2.6-0.1-5.3-0.2-7.9-0.2c-1.7,0-2.1,0.3-2.1,1.9
		c0,5.4,0,10.9,0.3,16.3c0.2,3,1,3.7,3.8,3.9c3.7,0.2,7.5,0.2,11.3,0c3.7-0.2,6.2-2.3,7.9-5.5c0.6-1,1.2-2,1.9-3
		c1.1,0.9,1,1.8,0.7,2.6c-0.7,2.1-1.3,4.3-2,6.4c-0.8,2.4-1.2,2.6-3.7,2.5c-6.6-0.2-13.3-0.4-19.9-0.5c-3.8,0-7.7,0.3-11.5,0.3
		c-1.3,0-2.7,0.4-4.1-0.8c0.4-0.4,0.7-0.8,1.1-1c0.8-0.3,1.7-0.5,2.5-0.8c3.2-0.9,4.2-2.1,4.4-5.4c0.2-4,0.4-8,0.5-12
		c0.1-7.5,0.1-15,0.1-22.6c0-0.7,0-1.4-0.1-2.2c-0.2-2.8-1-3.8-3.7-4.6C310.1,85.4,308.9,85.5,308.2,84.2z"/>
	<path fill="#622E36" d="M391.5,134.6c-0.7,0.1-1.3,0.3-1.9,0.3c-6.4,0.1-12.8,0.1-19.2,0.1c-0.3,0-0.5-0.3-1-0.6
		c0.4-0.4,0.7-0.9,1.2-1.1c0.7-0.3,1.5-0.5,2.3-0.7c3.1-1,3.9-1.8,4-5.1c0.2-4.7,0.3-9.4,0.2-14.1c0-1.7-0.6-3.5-1.4-5
		c-3.7-6.2-7.6-12.2-11.4-18.3c-1.5-2.4-3.5-4.1-6.4-4.7c-0.8-0.2-1.7-0.4-1.8-1.5c1.3-0.6,11.5-0.8,16.9-0.4c0.6,0,1.1,0.3,1.7,0.4
		c-0.2,1.4-1.1,1.5-1.9,1.8c-2,0.8-2.3,1.3-1.2,3.2c3.4,5.9,7,11.7,10.5,17.5c0.1,0.2,0.4,0.3,0.7,0.6c0.5-0.6,1-1.2,1.4-1.8
		c3.1-4.9,6.1-9.8,9.1-14.7c0.2-0.3,0.4-0.7,0.6-1.1c0.7-1.8,0.4-2.6-1.4-3.4c-0.5-0.2-1.1-0.3-1.6-0.5c-0.5-0.3-0.9-0.7-1.6-1.4
		c2.2-1.1,4.1-0.5,6-0.6c2-0.1,4-0.1,6-0.1c1.8,0,3.7-0.6,5.5,0.2c0,0.2,0.1,0.4,0.1,0.6c-0.7,0.3-1.3,0.8-2,1c-3.5,1-6.4,3.1-8.4,6
		c-3.9,5.6-7.7,11.2-11.4,16.9c-1.1,1.7-1.6,3.6-1.5,5.7c0.2,4.6,0.3,9.1,0.4,13.7c0,2.3,1.1,3.8,3.3,4.4c1,0.3,2,0.6,3,0.9
		C390.7,133.1,391.5,133.3,391.5,134.6z"/>
	<path fill="#622E36" d="M16.4,84.1c0.8-0.4,1.2-0.8,1.6-0.8c6.4,0,12.8,0,19.2,0.1c0.3,0,0.6,0.4,1.3,0.8c-0.9,0.5-1.5,1-2.2,1.2
		c-4.5,1.4-5,2.1-5,6.8c-0.1,11.7-0.2,23.3-0.3,35c0,4.6-1,9-3.1,13.2c-2.3,4.6-5.9,7.9-10.7,9.8c-2.1,0.8-4.3,1.2-6.5,0.3
		c-2.1-0.9-2.7-2.1-2.1-3.6c1.1-2.4,2.9-3.4,4.8-2.6c1,0.4,2,1.1,3,1.5c2.5,1.1,4.3,0.6,5.8-1.6c1.3-1.8,1.7-4,1.7-6.1
		c0.2-5.1,0.4-10.2,0.4-15.3c0-9,0-17.9-0.1-26.9c0-1.8-0.2-3.5-0.3-5.3c-0.2-2.9-1.1-4-3.8-4.8c-0.6-0.2-1.3-0.2-1.9-0.5
		C17.7,85.2,17.2,84.7,16.4,84.1z"/>
	<path fill="#622E36" d="M62.4,10.8c3.3-0.3,6.4-0.4,10,0c-0.7,0.6-0.9,1-1.2,1.1c-1.7,0.3-2.2,1.5-2.2,3c0,2.4,0,4.8,0,7.4
		c5,0.5,10,0.1,15.1,0.2c0.1-0.9,0.3-1.7,0.3-2.4c0-1.2-0.1-2.4,0-3.6c0.1-2.2-0.1-4.2-2.7-4.9c-0.1,0-0.1-0.3-0.2-0.4
		c1.3-0.7,7.4-0.8,9.3-0.1c0,0.1,0,0.2,0,0.2c-2.7,1-2.9,3.3-2.9,5.6c0,5,0,10.1-0.1,15.1c0,1.8,0.5,3.1,2.4,3.6
		c0.1,0,0.2,0.2,0.4,0.3c0,0.1,0.1,0.1,0.1,0.2c-1.1,0.6-7.8,0.9-9.6,0.3c0.3-0.3,0.5-0.7,0.8-0.8c1.8-0.5,2.4-1.7,2.4-3.4
		c0-2.5,0-4.9,0-7.7c-5.2-0.1-10.1-0.3-15.4,0.1c-0.1,1.7-0.1,3.3-0.2,4.8c0,0.7,0.1,1.4,0.1,2.2c-0.1,2,0.5,3.5,2.6,4.1
		c0.2,0.1,0.3,0.4,0.5,0.7c-0.3,0.2-0.6,0.4-0.8,0.4c-2.7,0-5.4,0-8.1-0.1c-0.3,0-0.7-0.3-1.1-0.4c0.2-0.3,0.4-0.6,0.5-0.6
		c2.4-0.5,2.8-2.3,2.8-4.3c0-5.2,0.1-10.4,0.2-15.6c0-2-0.2-3.7-2.5-4.2C62.7,11.5,62.6,11.2,62.4,10.8z"/>
	<path fill="#622E36" d="M355.4,35.9c-1.4,1.4-2.9,1.1-4.3,0.7c-1.8-0.5-3.1-1.6-4.1-3.1c-1.6-2.4-3.2-4.8-4.8-7.2
		c-1-1.4-2.2-2.4-4.3-1.8c-0.1,0.9-0.2,1.9-0.2,2.9c0,1.6,0.1,3.2,0.1,4.8c0,1.6,0.5,2.8,2.2,3.2c0.3,0.1,0.6,0.4,1.3,1
		c-3.8,0.4-7.1-0.2-10.5,0.1c0.3-0.6,0.3-0.8,0.4-0.8c2.6-0.7,3.2-2.5,3.1-4.9c-0.1-4.8,0-9.6,0-14.4c0-0.7-0.1-1.4-0.2-2.1
		c-0.1-1.2-0.7-2.1-1.9-2.4c-0.4-0.1-0.7-0.3-1.4-0.7c0.9-0.3,1.3-0.5,1.8-0.6c3.3-0.1,6.6-0.2,9.8-0.2c2.5,0,4.7,0.7,6.2,3.1
		c1.8,3,1.2,6.6-1.5,8.8c-0.6,0.5-1.3,0.9-2.1,1.5c0.6,1.1,1.1,2.1,1.8,3.1c1,1.5,2,2.9,3,4.3C351.1,33.4,352.7,35.2,355.4,35.9z
		 M337.8,17.5c0,0-0.1,0-0.1,0c0,0.6,0,1.3,0,1.9c-0.1,4.1,0.8,4.8,4.7,3.2c2.5-1,4-3.9,3.3-6.4c-0.8-2.9-3.5-4.8-6.3-4.4
		c-1.2,0.1-1.7,0.7-1.7,1.9C337.8,14.9,337.8,16.2,337.8,17.5z"/>
	<path fill="#622E36" d="M183.3,36c0.6-0.3,0.9-0.6,1.3-0.7c1.5-0.5,2.1-1.5,2.2-3.1c0.3-5.3,0.6-10.7,0.8-16c0.1-2.6-0.5-3.3-3-4.3
		c-0.4-0.2-0.8-0.4-1.6-0.7c0.8-0.3,1.1-0.6,1.5-0.6c4.8-0.3,4.9-0.1,7.9,3.4c4.4,5.1,8.9,10.1,13.4,15.1c0.2,0.3,0.6,0.5,1.1,0.8
		c0.2-0.6,0.3-0.9,0.3-1.3c0-4.2-0.1-8.5-0.1-12.7c0-2-0.7-3.6-2.9-4.2c-0.2-0.1-0.3-0.3-0.5-0.5c1.3-0.7,6.2-1,8.6-0.4
		c-0.4,0.4-0.7,0.8-1,0.9c-1.6,0.4-2.2,1.5-2.3,3c-0.1,0.7-0.1,1.4-0.1,2.2c-0.1,6.1-0.1,12.1-0.1,18.2c0,0.5-0.1,1.1-0.1,1.6
		c-1.3,0.4-1.8-0.6-2.4-1.3c-4.6-5.4-9.2-10.8-13.8-16.3c-0.9-1-1.8-2-2.7-3c-0.2,0-0.3,0.1-0.5,0.1c-0.1,0.7-0.2,1.5-0.2,2.2
		c-0.1,3.7-0.1,7.4-0.1,11c0,4.2,0,4.2,3.4,6.5c-1.5,1-3,0.4-4.4,0.3C186.4,36.4,184.9,36.9,183.3,36z"/>
	<path fill="#622E36" d="M179.4,23.5c0,8-5.8,13.8-13.8,13.8c-7.8,0-13.6-6-13.6-14c0.1-7.5,6-13.2,13.5-13.2
		C173.3,10,179.7,15.9,179.4,23.5z M175.6,24.3c-0.2-4.2-1.5-8.2-5.3-11c-5.1-3.8-11.5-1.9-13.5,4.2c-1.4,4.3-1.2,8.5,1,12.5
		c1.5,2.7,3.7,4.8,6.8,5.6c3.8,1,7.2-0.5,9.1-3.9C175,29.5,175.5,27.1,175.6,24.3z"/>
	<path fill="#622E36" d="M231.9,25.9c3.2,0,6.4,0,10,0c-3.5,2.7-2.8,5.8-1.6,9.2c0,0-0.1,0.3-0.3,0.3c-4.2,1.4-8.5,2.2-12.9,1.4
		c-5.7-1.1-9.9-5.3-10.7-10.9c-0.9-6.1,1.7-11.4,6.8-14.1c3.3-1.8,6.8-2.1,10.5-1.7c1.5,0.2,3,0.5,4.5,0.8c0.4,0.1,1.1,0.3,1.2,0.6
		c0.6,1.8,1.2,3.6,0.6,5.8c-0.5-0.6-0.8-0.8-1-1.2c-2.4-4.5-6.6-6.2-11.5-4.3c-4.2,1.6-6.2,4.9-7,9c-0.7,3.7-0.1,7.2,2.1,10.3
		c2.5,3.5,6,5.2,10.4,4.7c2.4-0.3,3.2-1.2,3.3-3.6c0-0.2,0-0.3,0-0.5c0-4,0-4-3.8-5.1c-0.2-0.1-0.4-0.2-0.6-0.4
		C231.9,26.2,231.9,26.1,231.9,25.9z"/>
	<path fill="#622E36" d="M95,36c0.4-0.2,0.8-0.5,1.2-0.6c1.9-0.4,2.5-1.7,2.6-3.5c0.1-5,0.2-9.9,0.3-14.9c0-4,0-4-3.5-6.2
		c0.9-0.2,1.4-0.4,1.9-0.4c3.3,0,6.5,0.1,9.8,0.2c1.7,0,3.3,0,5.1,0c0.3,1.7,0.9,3.3-0.1,5.1c-0.3-0.4-0.6-0.6-0.7-0.8
		c-0.6-2.2-2.2-2.8-4.1-2.9c-1.4,0-2.8,0-4.4,0c-0.8,3.5-0.4,6.8-0.5,10.3c2.1,0.7,4.1,0.5,5.9,0c0.8-0.2,1.4-1.3,2.1-2.1
		c0.6,1.5,0.6,4.8,0.1,6.6c-0.1,0-0.4,0-0.4,0c-0.8-2.2-2.5-2.7-4.6-2.5c-0.9,0.1-1.9,0-3.1,0c-0.4,3.2-0.3,6.2,0,9.2
		c0.1,1,0.8,1.6,1.8,1.6c2.2,0,4.5,0.1,6.7-0.2c0.9-0.1,1.8-1.2,2.6-1.9c0.5-0.5,0.9-1.2,1.6-2.2c0.3,2.3-0.4,3.8-1.1,5.3
		c-0.4,0.9-1.3,0.8-2.1,0.7c-2.8-0.1-5.6-0.2-8.4-0.2c-2.1,0-4.2,0.1-6.2,0.1c-0.8,0-1.6-0.1-2.5-0.2C95,36.3,95,36.2,95,36z"/>
	<path fill="#622E36" d="M315.5,10.2c0.3,0.7,0.6,1.4,0.9,2.2c2,5.5,4,10.9,6.1,16.4c1.1,2.9,1.7,6.3,5.5,7.4
		c-3.3,0.8-6.5,0-9.7,0.3c0.1-0.5,0-0.7,0.1-0.8c2.3-1.3,2.3-1.3,1.6-3.7c-0.4-1.4-1-2.7-1.4-4.1c-0.4-1.3-1.2-2-2.6-1.9
		c-1.5,0.1-3,0.1-4.5,0.1c-1.2,0-1.9,0.6-2.2,1.7c-0.4,1.4-0.9,2.7-1.3,4.1c-0.5,2.1-0.5,2.2,1.6,3.3c0.3,0.1,0.5,0.3,1,0.6
		c-1.6,1-3.1,0.4-4.5,0.5c-1.5,0.1-2.9,0-4.8,0c0.5-0.5,0.7-0.9,0.9-0.9c2.2-0.5,3.2-2.1,4-4.1c2.4-6.1,4.7-12.2,7.1-18.3
		c0.4-1.1,1-2.1,1.5-3.1C315.1,10.1,315.3,10.2,315.5,10.2z M314.3,15.8c-0.2,0-0.4,0-0.7-0.1c-1,2.7-1.9,5.5-3,8.4
		c2.4,0.4,4.3,0.5,6.6-0.1C316.2,21.2,315.2,18.5,314.3,15.8z"/>
	<path fill="#622E36" d="M40.2,36.4c0.2-0.4,0.2-0.5,0.2-0.5c2.8-0.7,3.3-2.7,3.3-5.2c0-5.3,0.1-10.7,0.2-16c0-0.6-0.2-1.2-0.3-2.1
		c-2.1,0-4.1-0.2-6,0.1c-0.9,0.1-1.7,1-2.5,1.7c-0.5,0.4-0.8,1.1-1.5,1.5c-0.7-2.3,0.3-4.3,0.5-6.7c2.4,1.8,4.8,1.6,7.1,1.6
		c3.6,0,7.2,0,10.8,0c2.1,0,4.2-0.3,6.4-0.4c0.1,2.4-0.3,4.3-1.4,5.6c-0.2-0.3-0.4-0.5-0.5-0.8c-0.9-2.6-1-2.7-3.7-2.7
		c-1.7,0-3.3,0-5.2,0c-0.1,0.9-0.2,1.6-0.2,2.3c0,5.3,0,10.7,0,16c0,0.5,0,1,0.1,1.4c0.1,1.6,0.7,2.8,2.4,3.2
		c0.5,0.1,0.9,0.5,1.6,0.8c-0.6,0.3-0.9,0.5-1.1,0.5c-3.1,0.1-6.2,0.1-9.3,0.1C40.9,36.8,40.6,36.5,40.2,36.4z"/>
	<path fill="#622E36" d="M374.2,36.5c-3.6,0-7.1,0-10.7,0c0-0.1-0.1-0.2-0.1-0.4c0.4-0.2,0.7-0.6,1.1-0.7c1.7-0.4,2.3-1.5,2.4-3.2
		c0.1-1.8,0.1-3.7,0.2-5.5c0.1-3.8,0.1-7.5,0.1-11.3c0-0.9-0.1-1.9-0.2-3.2c-2.2,0-4.3-0.2-6.3,0.1c-0.9,0.1-1.7,1-2.4,1.7
		c-0.5,0.4-0.8,1-1.4,1.5c-0.4-2.2,0.3-4.2,0.5-6.7c1.8,1.7,3.6,1.7,5.4,1.7c4.9,0.1,9.8,0.1,14.6,0.1c1.4,0,2.8-0.4,4.2-0.6
		c0.1,2.2-0.3,4.2-1.3,5.8c-0.3-0.7-0.5-1.3-0.7-1.8c-0.3-0.9-0.8-1.6-1.8-1.6c-2.3-0.1-4.6,0-7,0c-0.1,1-0.2,1.8-0.2,2.6
		c0,5.1,0,10.2,0,15.3c0,0.5,0,1,0,1.4c0,2,0.8,3.4,2.9,3.7c0.3,0,0.5,0.3,0.8,0.4C374.3,36.1,374.3,36.3,374.2,36.5z"/>
	<path fill="#622E36" d="M284.7,12.4c-2.2,0-4.2-0.1-6.3,0.1c-0.7,0.1-1.5,0.8-2.1,1.4c-0.6,0.5-0.9,1.2-1.4,2
		c-0.7-1.6-0.6-2.5,0.4-6.5c2.5,1.7,5.3,1.4,8,1.4c3.8,0.1,7.7,0.1,11.5,0c1.5,0,3-0.4,4.6-0.6c0.1,1.9-0.5,3.7-1,6
		c-0.5-0.6-0.8-0.8-0.9-1.1c-0.8-2.5-0.9-2.7-3.4-2.7c-1.8,0-3.6,0-5.6,0c-0.1,1-0.2,1.7-0.2,2.4c0,5.3,0,10.5,0,15.8
		c0,0.6,0,1.1,0.1,1.7c0,1.6,0.7,2.7,2.4,3.2c0.4,0.1,0.8,0.3,1.8,0.7c-2.3,0.9-4.2,0.3-6,0.3c-1.8,0-3.6,0.8-5.5-0.2
		c0.4-0.3,0.6-0.6,0.9-0.6c2.2-0.4,2.7-1.8,2.8-3.8c0-5.7,0.2-11.3,0.3-17C285,14,284.8,13.3,284.7,12.4z"/>
	<path fill="#622E36" d="M269.5,15.6c-0.3-0.2-0.6-0.5-0.8-0.8c-0.4-0.6-0.7-1.3-1.1-1.8c-1.6-2-4.4-2.4-6.4-1
		c-1.9,1.4-2.4,4.4-0.9,6.5c0.6,0.8,1.3,1.4,2.1,2c1.3,1,2.6,1.8,3.9,2.8c0.9,0.7,1.8,1.4,2.5,2.2c3,3.5,2,8.5-2.2,10.5
		c-3,1.5-6.2,1.5-9.3,0.3c-0.6-0.2-1.4-0.9-1.6-1.6c-0.4-1.2-0.5-2.6-0.7-4.1c1.4,0.2,1.6,1.2,2,1.9c0.9,1.7,2.4,2.8,4.2,3.2
		c2,0.5,4-0.3,5-1.9c1.1-1.7,1.2-3.8-0.1-5.4c-1.1-1.3-2.4-2.3-3.7-3.3c-1.5-1.2-3.1-2.3-4.4-3.7c-3.6-4.3-1.6-9.8,3.8-11.1
		c2.2-0.5,4.5-0.3,6.6,0.4c0.5,0.1,1,0.6,1.1,1.1c0.3,1.2,0.4,2.5,0.6,3.7C269.9,15.4,269.7,15.5,269.5,15.6z"/>
	<path fill="#622E36" d="M128.4,11.1c2.4-0.7,8.8-0.7,10.5,0.1c-0.8,0.4-1.4,0.7-2,1c-1,0.4-1.5,1-1.5,2.1c0,6.1-0.1,12.1,0,18.2
		c0,1.7,0.8,2.3,2.6,2.5c0.5,0,1,0,1.4,0c3.5,0.5,6.3-0.4,8.1-3.7c0.1-0.2,0.4-0.2,0.8-0.5c0.2,2-0.5,3.7-1.2,5.3
		c-0.2,0.4-1.2,0.6-1.9,0.6c-2.9,0-5.7-0.2-8.6-0.2c-2.2,0-4.5,0-6.7,0.1c-0.6,0-1.2-0.1-1.9-0.6c0.5-0.2,1.1-0.5,1.6-0.7
		c1.4-0.5,2-1.4,2.1-2.9c0.1-5.8,0.1-11.7,0.2-17.5c0-1.6-0.5-2.8-2.3-3.1C129.1,11.7,128.9,11.5,128.4,11.1z"/>
	<path fill="#622E36" d="M230.6,51.8c1.8,0,3.5,0,5.7,0c-1.6,0.9-1.9,2.2-1.9,3.6c0.1,1.3,0,2.7,0,4.3c3.6,0.2,7,0.1,10.5,0
		c0.5-2.1,0.4-4.1,0.1-6c-0.1-0.6-0.9-1.2-1.5-1.9c1.9,0,3.8,0,5.7,0c-1.7,1.4-1.7,1.4-1.8,3.7c-0.1,3.4,0,6.7-0.1,10.1
		c0,1.5,0.2,2.7,1.7,3.5c-1.8,0-3.7,0-5.7,0c2.9-2.1,1.4-5.1,1.7-7.7c-1.9-0.7-7.3-0.8-10.5-0.3c-0.7,2-0.4,4.2-0.1,6.3
		c0.1,0.6,0.9,1,1.5,1.7c-2,0-3.9,0-6.4,0c2.5-1.1,2.3-3.1,2.3-4.9c0.1-2.8,0.1-5.6,0.1-8.4C232.2,53.4,232.2,53.4,230.6,51.8z"/>
	<path fill="#622E36" d="M177.8,69.6c-5.3,0-9-3.8-9-9.1c0-5.2,3.9-9.1,9.1-9.2c5.4,0,9.4,3.9,9.4,9.1
		C187.2,65.9,183.5,69.6,177.8,69.6z M184.9,61.2c-0.2-3-1.5-5.8-3.5-7.5c-3.6-3-8.3-1.6-9.7,2.9c-0.6,2.1-0.7,4.2,0,6.4
		c0.7,2.1,1.8,3.9,3.8,5.1c3.2,1.9,6.7,0.9,8.2-2.5C184.3,64.1,184.5,62.6,184.9,61.2z"/>
	<path fill="#622E36" d="M258.4,51.8c3.5,0,7,0,10.7,0c0.1,1,0.1,1.9,0.2,2.8c-1.8-2.7-4.2-2-6.7-1.8c0,2.3,0,4.5,0,6.8
		c2,0.5,3.8,0.7,5.5-1.3c0,1.5,0,2.8,0,4.4c-1.5-2.4-3.5-2-5.5-1.7c-0.6,2-0.4,4-0.2,6c0.1,0.9,0.7,1.4,1.6,1.5
		c2.7,0.3,5.3,0.4,7.2-2.4c-0.2,0.8-0.4,1.7-0.7,2.4c-0.2,0.4-0.8,0.8-1.3,0.8c-3.8,0.1-7.6,0-11.6-0.2c2.2-0.8,2.3-2.5,2.4-4.3
		c0.1-3.3,0.1-6.6,0.1-9.8C260,53.7,259.5,52.6,258.4,51.8z"/>
	<path fill="#622E36" d="M155.9,69.2c-2.1,0-4.2,0-7,0c3-1.3,2.6-3.7,2.6-5.8c0-3.4,0-6.8,0-10.5c-2.6-0.3-5.1-1-7,2.4
		c-0.3-1.8,0.3-3,0.3-4.2c5.5,1,10.9,0.7,16.5,0.4c-0.1,0.8-0.2,1.6-0.3,2.3c0,0.3-0.2,0.6-0.4,1.1c-1.4-3.6-4.2-2-6.5-2.3
		c-0.2,0.5-0.3,0.8-0.3,1.1c0,4.1,0.1,8.3,0,12.4C153.8,67.9,154.9,68.3,155.9,69.2z"/>
	<path fill="#622E36" d="M222.7,51.6c-0.2,1-0.3,2.1-0.6,3.6c-0.9-1.4-1.3-2.8-2.9-2.6c-1.2,0.1-2.4,0-3.7,0c-0.2,0.6-0.4,1-0.4,1.5
		c0,3.6,0,7.2,0,10.8c0,1.7,0.2,3.3,2.1,4.2c-2.1,0-4.2,0-6.7,0c2.7-1.4,2.3-3.8,2.3-6c0.1-3.3,0-6.7,0-10c-3.2-1.1-4.7-0.8-7.2,1.8
		c0.2-1.6,0.4-2.8,0.6-3.8C211.8,52.2,217.1,51.7,222.7,51.6z"/>
</g>
</svg>
